<?xml version="1.0" encoding="UTF-8"?>
<svg id="Calque_1" data-name="Calque 1" xmlns="http://www.w3.org/2000/svg" width="426.9" height="413.23" xmlns:xlink="http://www.w3.org/1999/xlink" viewBox="0 0 426.9 413.23">
  <defs>
    <linearGradient id="Dégradé_sans_nom_11" data-name="Dégradé sans nom 11" x1="0" y1="206.62" x2="426.9" y2="206.62" gradientUnits="userSpaceOnUse">
      <stop offset="0" stop-color="#4cbdfa"/>
      <stop offset="1" stop-color="#058ed9"/>
    </linearGradient>
  </defs>
  <path id="Tracé_1" data-name="Tracé 1" d="M247.21,146.66c-5.88-14.43-19.92-23.86-35.5-23.88-10.18-.01-19.94,4.04-27.11,11.26-15.1,15.23-14.98,39.81.25,54.9,3.5,3.46,7.62,6.24,12.15,8.15,14.34,6.01,30.89,2.71,41.85-8.32,11.01-11.08,14.3-27.67,8.36-42.11ZM247.21,146.66c-5.88-14.43-19.92-23.86-35.5-23.88-10.18-.01-19.94,4.04-27.11,11.26-15.1,15.23-14.98,39.81.25,54.9,3.5,3.46,7.62,6.24,12.15,8.15,14.34,6.01,30.89,2.71,41.85-8.32,11.01-11.08,14.3-27.67,8.36-42.11ZM422.55,359.21l-1.04-1.04L241.45,19.26c-9.63-17.83-31.9-24.48-49.72-14.83-6.47,3.5-11.74,8.86-15.13,15.4L3.84,359.56c-6.61,13.29-4.55,29.28,5.22,40.46l2.09,2.07c9.9,9.75,24.48,13.05,37.61,8.53l142.38-48.19c14.3-4.84,29.8-4.81,44.09.05l143.53,48.9c19.24,6.34,39.99-4.14,46.32-23.38,3.13-9.54,2.22-19.95-2.52-28.79ZM158.18,159.02c.87-20.94,13.78-39.48,33.13-47.56,20.04-8.32,43.15-3.68,58.41,11.74,15.34,15.51,19.9,38.7,11.57,58.85-11.23,27.37-42.52,40.46-69.88,29.22-20.24-8.3-33.39-28.06-33.23-49.94v-2.32ZM289.46,284.62c-4.66,9.75-15.58,16.4-32.58,19.84-7.7,1.74-15.53,2.86-23.42,3.37-7.63.78-15.3,1.12-22.98,1h-2.71c-4.24-.48-7.27-4.31-6.78-8.55.4-3.56,3.22-6.37,6.78-6.78h6.04c6.04-.06,12.09-.35,18.19-.89,7.16-.47,14.29-1.47,21.31-3.01,12.08-2.66,19.62-6.47,22-11.52,1.85-3.88,1.85-8.36,0-12.24-2.37-5.13-9.94-9.12-21.74-11.52-7.12-1.6-14.38-2.65-21.66-3.1-13.62-1.24-27.32-1.24-40.94,0-7.2.47-14.35,1.49-21.4,3.03-12.08,2.66-19.54,6.47-22.01,11.52-.87,1.92-1.32,4.01-1.32,6.12s.44,4.25,1.32,6.2c4.17,5.75,10.56,9.51,17.61,10.37l1,.27c4.03,1.36,6.21,5.73,4.87,9.76-1.36,4.03-5.73,6.21-9.76,4.87-11.38-1.88-21.33-8.7-27.2-18.62-3.78-8.05-3.78-17.38,0-25.44,4.67-10.01,15.59-16.48,32.4-19.94,7.91-1.74,15.94-2.87,24.02-3.39,14.47-1.24,29.02-1.24,43.48,0,7.91.52,15.77,1.68,23.51,3.44,16.73,3.37,27.63,10.02,32.23,19.77,3.67,8.1,3.56,17.4-.26,25.44ZM197,197.1c14.34,6.01,30.89,2.71,41.85-8.32,11.01-11.08,14.3-27.67,8.36-42.11-5.88-14.43-19.92-23.86-35.5-23.88-10.18-.01-19.94,4.04-27.11,11.26-15.1,15.23-14.98,39.81.25,54.9,3.5,3.46,7.62,6.24,12.15,8.15Z" fill="url(#Dégradé_sans_nom_11)"/>
</svg>