<?xml version="1.0" encoding="UTF-8"?><svg id="Calque_1" xmlns="http://www.w3.org/2000/svg" xmlns:xlink="http://www.w3.org/1999/xlink" viewBox="0 0 381 84.87"><defs><style>.cls-1{fill:#fff;}.cls-1,.cls-2,.cls-3{stroke-width:0px;}.cls-2{fill:url(#Dégradé_sans_nom_11);}.cls-3{fill:#4cbdfa;}</style><linearGradient id="Dégradé_sans_nom_11" x1=".01" y1="42.43" x2="87.68" y2="42.43" gradientUnits="userSpaceOnUse"><stop offset="0" stop-color="#4cbdfa"/><stop offset="1" stop-color="#058ed9"/></linearGradient></defs><path id="Tracé_1" class="cls-2" d="m50.78,30.12c-1.21-2.96-4.09-4.9-7.29-4.9-2.09,0-4.09.83-5.57,2.31-3.1,3.13-3.08,8.17.05,11.27.72.71,1.56,1.28,2.49,1.67,2.94,1.24,6.34.56,8.6-1.71,2.26-2.27,2.94-5.68,1.72-8.65Zm0,0c-1.21-2.96-4.09-4.9-7.29-4.9-2.09,0-4.09.83-5.57,2.31-3.1,3.13-3.08,8.17.05,11.27.72.71,1.56,1.28,2.49,1.67,2.94,1.24,6.34.56,8.6-1.71,2.26-2.27,2.94-5.68,1.72-8.65Zm36.01,43.65l-.21-.21L49.6,3.96c-1.98-3.66-6.55-5.03-10.21-3.05-1.33.72-2.41,1.82-3.11,3.16L.8,73.84c-1.36,2.73-.94,6.01,1.07,8.31l.43.43c2.03,2,5.03,2.68,7.72,1.75l29.24-9.9c2.94-.99,6.12-.99,9.05.01l29.48,10.04c3.95,1.3,8.21-.85,9.51-4.8.64-1.96.46-4.1-.52-5.91Zm-54.29-41.11c.18-4.3,2.83-8.11,6.8-9.77,4.12-1.71,8.86-.76,12,2.41,3.15,3.19,4.09,7.95,2.38,12.09-2.31,5.62-8.73,8.31-14.35,6-4.16-1.7-6.86-5.76-6.82-10.26v-.48Zm26.96,25.79c-.96,2-3.2,3.37-6.69,4.08-1.58.36-3.19.59-4.81.69-1.57.16-3.14.23-4.72.21h-.56c-.87-.1-1.49-.88-1.39-1.75.08-.73.66-1.31,1.39-1.39h1.24c1.24-.01,2.48-.07,3.74-.18,1.47-.1,2.93-.3,4.38-.62,2.48-.55,4.03-1.33,4.52-2.37.38-.8.38-1.72,0-2.51-.49-1.05-2.04-1.87-4.46-2.37-1.46-.33-2.95-.54-4.45-.64-2.8-.25-5.61-.25-8.41,0-1.48.1-2.95.31-4.39.62-2.48.55-4.01,1.33-4.52,2.37-.18.39-.27.82-.27,1.26s.09.87.27,1.27c.86,1.18,2.17,1.95,3.62,2.13l.21.06c.83.28,1.28,1.18,1,2-.28.83-1.18,1.28-2,1-2.34-.39-4.38-1.79-5.59-3.82-.78-1.65-.78-3.57,0-5.22.96-2.06,3.2-3.38,6.65-4.09,1.62-.36,3.27-.59,4.93-.7,2.97-.25,5.96-.25,8.93,0,1.62.11,3.24.35,4.83.71,3.44.69,5.68,2.06,6.62,4.06.75,1.66.73,3.57-.05,5.22Zm-18.99-17.97c2.94,1.24,6.34.56,8.6-1.71,2.26-2.27,2.94-5.68,1.72-8.65-1.21-2.96-4.09-4.9-7.29-4.9-2.09,0-4.09.83-5.57,2.31-3.1,3.13-3.08,8.17.05,11.27.72.71,1.56,1.28,2.49,1.67Z"/><path class="cls-1" d="m126.37,42.08c-.9,1.69-2.34,3.06-4.31,4.12-1.98,1.06-4.51,1.59-7.6,1.59h-6.79v15.2h-6.15V25.53h12.94c2.87,0,5.31.49,7.31,1.48,1.99.99,3.49,2.33,4.47,4.02.99,1.69,1.48,3.58,1.48,5.66,0,1.91-.45,3.7-1.35,5.39Zm-6.69-.89c1.15-1.06,1.73-2.56,1.73-4.5,0-4.1-2.32-6.15-6.95-6.15h-6.79v12.24h6.79c2.34,0,4.08-.53,5.23-1.59Z"/><path class="cls-1" d="m143.33,34.08c1.49-.84,3.26-1.27,5.31-1.27v6.36h-1.56c-2.41,0-4.23.61-5.47,1.83-1.24,1.22-1.86,3.34-1.86,6.36v15.63h-6.15v-29.71h6.15v4.31c.9-1.51,2.09-2.69,3.58-3.53Z"/><path class="cls-1" d="m159.58,61.57c-2.26-1.28-4.04-3.07-5.34-5.39-1.29-2.32-1.94-5-1.94-8.06s.66-5.7,1.99-8.03c1.33-2.34,3.15-4.13,5.45-5.39,2.3-1.26,4.87-1.89,7.71-1.89s5.41.63,7.71,1.89c2.3,1.26,4.12,3.05,5.45,5.39,1.33,2.34,2,5.01,2,8.03s-.68,5.7-2.05,8.03c-1.37,2.34-3.23,4.14-5.58,5.42-2.36,1.28-4.95,1.91-7.79,1.91s-5.34-.64-7.6-1.91Zm12.05-4.56c1.38-.75,2.51-1.89,3.37-3.4.86-1.51,1.29-3.34,1.29-5.5s-.41-3.98-1.24-5.47c-.83-1.49-1.92-2.62-3.29-3.37-1.37-.76-2.84-1.13-4.42-1.13s-3.05.38-4.39,1.13c-1.35.75-2.42,1.88-3.21,3.37-.79,1.49-1.19,3.31-1.19,5.47,0,3.2.82,5.67,2.45,7.41,1.64,1.74,3.69,2.61,6.17,2.61,1.58,0,3.06-.38,4.45-1.13Z"/><path class="cls-1" d="m201.14,38.31h-5.5v24.69h-6.2v-24.69h-3.5v-5.01h3.5v-2.1c0-3.41.91-5.9,2.72-7.47,1.81-1.56,4.66-2.35,8.54-2.35v5.12c-1.87,0-3.18.35-3.93,1.05-.76.7-1.13,1.91-1.13,3.64v2.1h5.5v5.01Z"/><path class="cls-1" d="m206.91,28.23c-.75-.75-1.13-1.69-1.13-2.8s.38-2.05,1.13-2.8c.76-.75,1.69-1.13,2.8-1.13s2,.38,2.75,1.13c.76.76,1.13,1.69,1.13,2.8s-.38,2.05-1.13,2.8c-.75.76-1.67,1.13-2.75,1.13s-2.05-.38-2.8-1.13Zm5.82,5.07v29.71h-6.15v-29.71h6.15Z"/><path class="cls-1" d="m226.97,23.11v39.89h-6.15V23.11h6.15Z"/><path class="cls-3" d="m260.23,46.94c1.4,1.76,2.1,3.76,2.1,5.98,0,1.9-.49,3.62-1.48,5.15-.99,1.53-2.42,2.73-4.29,3.61s-4.04,1.32-6.52,1.32h-14.99V25.53h14.29c2.55,0,4.74.43,6.58,1.29,1.83.86,3.22,2.02,4.15,3.48.93,1.46,1.4,3.08,1.4,4.88,0,2.16-.57,3.95-1.72,5.39-1.15,1.44-2.7,2.5-4.64,3.18,2.01.36,3.72,1.42,5.12,3.18Zm-19.03-5.66h7.6c2.01,0,3.59-.46,4.72-1.37,1.13-.92,1.7-2.24,1.7-3.96s-.57-3.01-1.7-3.96c-1.13-.95-2.7-1.43-4.72-1.43h-7.6v10.73Zm13.21,15.2c1.19-1.01,1.78-2.41,1.78-4.21s-.63-3.29-1.89-4.37c-1.26-1.08-2.93-1.62-5.01-1.62h-8.09v11.7h8.3c2.08,0,3.72-.5,4.91-1.51Z"/><path class="cls-3" d="m274.3,61.57c-2.26-1.28-4.04-3.07-5.34-5.39-1.29-2.32-1.94-5-1.94-8.06s.66-5.7,1.99-8.03c1.33-2.34,3.14-4.13,5.45-5.39,2.3-1.26,4.87-1.89,7.71-1.89s5.41.63,7.71,1.89c2.3,1.26,4.12,3.05,5.45,5.39,1.33,2.34,2,5.01,2,8.03s-.68,5.7-2.05,8.03c-1.37,2.34-3.23,4.14-5.58,5.42-2.36,1.28-4.95,1.91-7.79,1.91s-5.34-.64-7.6-1.91Zm12.05-4.56c1.38-.75,2.51-1.89,3.37-3.4s1.29-3.34,1.29-5.5-.41-3.98-1.24-5.47c-.83-1.49-1.92-2.62-3.29-3.37-1.37-.76-2.84-1.13-4.42-1.13s-3.05.38-4.39,1.13c-1.35.75-2.42,1.88-3.21,3.37-.79,1.49-1.19,3.31-1.19,5.47,0,3.2.82,5.67,2.45,7.41,1.64,1.74,3.69,2.61,6.17,2.61,1.58,0,3.06-.38,4.45-1.13Z"/><path class="cls-3" d="m308.69,61.57c-2.26-1.28-4.04-3.07-5.34-5.39-1.29-2.32-1.94-5-1.94-8.06s.66-5.7,1.99-8.03c1.33-2.34,3.14-4.13,5.45-5.39,2.3-1.26,4.87-1.89,7.71-1.89s5.41.63,7.71,1.89c2.3,1.26,4.12,3.05,5.45,5.39,1.33,2.34,2,5.01,2,8.03s-.68,5.7-2.05,8.03c-1.37,2.34-3.23,4.14-5.58,5.42-2.36,1.28-4.95,1.91-7.79,1.91s-5.34-.64-7.6-1.91Zm12.05-4.56c1.38-.75,2.51-1.89,3.37-3.4.86-1.51,1.29-3.34,1.29-5.5s-.41-3.98-1.24-5.47c-.83-1.49-1.92-2.62-3.29-3.37-1.37-.76-2.84-1.13-4.42-1.13s-3.05.38-4.39,1.13c-1.35.75-2.42,1.88-3.21,3.37-.79,1.49-1.19,3.31-1.19,5.47,0,3.2.82,5.67,2.45,7.41,1.64,1.74,3.69,2.61,6.17,2.61,1.58,0,3.06-.38,4.45-1.13Z"/><path class="cls-3" d="m342.31,62.22c-1.85-.84-3.32-1.99-4.39-3.45-1.08-1.46-1.65-3.08-1.73-4.88h6.36c.11,1.26.71,2.31,1.81,3.15,1.1.84,2.47,1.27,4.12,1.27s3.06-.33,4.02-1c.95-.66,1.43-1.52,1.43-2.56,0-1.11-.53-1.94-1.59-2.48-1.06-.54-2.74-1.13-5.04-1.78-2.23-.61-4.04-1.2-5.45-1.78-1.4-.57-2.61-1.45-3.64-2.64-1.03-1.19-1.54-2.75-1.54-4.69,0-1.58.47-3.03,1.4-4.34.93-1.31,2.27-2.34,4.02-3.1,1.74-.75,3.75-1.13,6.01-1.13,3.38,0,6.1.85,8.17,2.56,2.07,1.71,3.17,4.03,3.32,6.98h-6.15c-.11-1.33-.65-2.39-1.62-3.18-.97-.79-2.28-1.19-3.94-1.19s-2.86.31-3.72.92c-.86.61-1.29,1.42-1.29,2.43,0,.79.29,1.46.86,2,.57.54,1.28.96,2.1,1.27.83.31,2.05.69,3.67,1.16,2.16.57,3.93,1.16,5.31,1.75,1.38.59,2.58,1.47,3.58,2.62,1.01,1.15,1.53,2.68,1.56,4.58,0,1.69-.47,3.2-1.4,4.53-.93,1.33-2.26,2.37-3.96,3.13-1.71.75-3.71,1.13-6.01,1.13s-4.43-.42-6.28-1.27Z"/><path class="cls-3" d="m373.77,38.31v16.44c0,1.11.26,1.91.78,2.4.52.48,1.41.73,2.67.73h3.77v5.12h-4.85c-2.77,0-4.89-.65-6.36-1.94-1.47-1.29-2.21-3.4-2.21-6.31v-16.44h-3.5v-5.01h3.5v-7.39h6.2v7.39h7.22v5.01h-7.22Z"/></svg>